<?xml version="1.0" standalone="no"?><!DOCTYPE svg PUBLIC "-//W3C//DTD SVG 1.1//EN" "http://www.w3.org/Graphics/SVG/1.1/DTD/svg11.dtd"><svg class="icon" width="200px" height="200.00px" viewBox="0 0 1024 1024" version="1.1" xmlns="http://www.w3.org/2000/svg"><path fill="#409eff" d="M869.04 64.01l-719.58 4.45c-47.45 0.26-85.72 39.06-85.46 86.51l4.46 719.57c0.26 47.45 39.06 85.72 86.51 85.46l719.58-4.45c47.45-0.26 85.72-39.06 85.46-86.51l-4.46-719.57c-0.53-47.71-39.33-85.99-86.51-85.46z m38.27 805.03c0 18.35-14.68 33.55-33.29 33.55l-719.58 4.45c-18.35 0-33.55-14.68-33.55-33.29l-4.46-719.57c0-18.35 14.68-33.55 33.29-33.55l719.58-4.45c18.35 0 33.55 14.68 33.55 33.29l4.46 719.57z"  /><path fill="#409eff" d="M197.483 449.682l629.15-3.904 0.813 131.07-629.15 3.904z"  /></svg>