<?xml version="1.0" standalone="no"?><!DOCTYPE svg PUBLIC "-//W3C//DTD SVG 1.1//EN" "http://www.w3.org/Graphics/SVG/1.1/DTD/svg11.dtd"><svg class="icon" width="200px" height="200.00px" viewBox="0 0 1024 1024" version="1.1" xmlns="http://www.w3.org/2000/svg"><path fill="#409eff" d="M873.59 960H150.41C102.73 960 64 921.27 64 873.59V150.41C64 102.73 102.73 64 150.41 64h723.18c47.68 0 86.41 38.73 86.41 86.41v723.17c0 47.69-38.73 86.42-86.41 86.42zM150.68 116.95c-18.44 0-33.72 15.02-33.72 33.72v723.17c0 18.44 15.02 33.72 33.72 33.72h723.18c18.44 0 33.72-15.02 33.72-33.72V150.68c0-18.44-15.02-33.72-33.72-33.72H150.68z" /></svg>