<?xml version="1.0" standalone="no"?><!DOCTYPE svg PUBLIC "-//W3C//DTD SVG 1.1//EN" "http://www.w3.org/Graphics/SVG/1.1/DTD/svg11.dtd"><svg t="1635925167519" class="icon" viewBox="0 0 1099 1024" version="1.1" xmlns="http://www.w3.org/2000/svg" p-id="4048" xmlns:xlink="http://www.w3.org/1999/xlink" width="214.6484375" height="200"><defs><style type="text/css"></style></defs><path d="M542.66 720.4c-118.1 0-312.4-80.5-312.4-198.3S423.46 324 541.46 324c120.1 0 313.5 80.3 313.5 198.1C855.06 639.9 660.86 720.4 542.66 720.4zM542.66 357.5c-116.3 0-277.3 75.1-277.3 164.6 0 86.9 155.2 165.8 277.3 165.8 126.8 0 281.3-82.2 281.3-165.8C823.86 435.2 657.36 357.5 542.66 357.5zM542.66 621.5c-54 0-97.9-43.9-97.9-97.9s43.9-97.9 97.9-97.9 97.9 43.9 97.9 97.9C640.66 577.6 596.66 621.5 542.66 621.5zM542.66 444.4c-43.7 0-79.3 35.6-79.3 79.2 0 43.7 35.6 79.2 79.3 79.2s79.2-35.5 79.2-79.2S586.36 444.4 542.66 444.4zM506.06 499.3c-2.2 0-4.5-0.8-6.3-2.4-3.8-3.5-4.1-9.4-0.6-13.1 1.9-2 3.8-3.9 6-5.7 4-3.3 9.9-2.7 13.1 1.3 3.3 4 2.7 9.9-1.3 13.1-1.5 1.2-2.9 2.5-4.1 3.9C511.06 498.3 508.56 499.3 506.06 499.3zM542.66 582.7c-32.6 0-59.1-26.5-59.1-59 0-5.2 4.2-9.3 9.3-9.3 5.2 0 9.3 4.2 9.3 9.3 0 22.3 18.1 40.4 40.4 40.4 5.2 0 9.3 4.2 9.3 9.3C551.96 578.5 547.76 582.7 542.66 582.7zM541.46 298.3c-10.3 0-18.7-8.3-18.7-18.7l0-56c0-10.3 8.3-18.7 18.7-18.7 10.3 0 18.7 8.3 18.7 18.7l0 56C560.16 289.9 551.76 298.3 541.46 298.3zM434.06 304.6c-6.9 0-13.4-3.8-16.6-10.3L400.06 260c-4.6-9.2-0.9-20.4 8.3-25 9.2-4.6 20.4-0.9 25 8.3l17.3 34.3c4.6 9.2 0.9 20.4-8.3 25C439.76 303.9 436.86 304.6 434.06 304.6zM325.16 347.9c-5.1 0-10.2-2.1-13.8-6.2l-24.3-27c-6.9-7.7-6.2-19.4 1.4-26.4 7.6-6.9 19.4-6.3 26.4 1.4l24.3 27c6.9 7.7 6.2 19.4-1.4 26.4C334.16 346.3 329.66 347.9 325.16 347.9zM641.36 304.6c-2.8 0-5.7-0.6-8.4-2-9.2-4.6-12.9-15.8-8.3-25l17.3-34.3c4.6-9.2 15.8-12.9 25-8.3 9.2 4.6 12.9 15.8 8.3 25l-17.3 34.3C654.76 300.9 648.16 304.6 641.36 304.6zM750.16 347.9c-4.4 0-8.9-1.6-12.4-4.8-7.7-6.9-8.3-18.7-1.4-26.4l24.3-27c6.9-7.6 18.7-8.3 26.4-1.4 7.7 6.9 8.3 18.7 1.4 26.4l-24.3 27C760.36 345.8 755.26 347.9 750.16 347.9z" p-id="4049"></path></svg>