<?xml version="1.0" standalone="no"?><!DOCTYPE svg PUBLIC "-//W3C//DTD SVG 1.1//EN" "http://www.w3.org/Graphics/SVG/1.1/DTD/svg11.dtd"><svg t="1635925173383" class="icon" viewBox="0 0 1099 1024" version="1.1" xmlns="http://www.w3.org/2000/svg" p-id="4195" xmlns:xlink="http://www.w3.org/1999/xlink" width="214.6484375" height="200"><defs><style type="text/css"></style></defs><path d="M840.46 456l-40.1-36.6c11.8-14.8 20.3-28.9 24.9-40.9l0.4-1.2c0.2-0.6 0.5-1.2 0.6-1.8l0.8-4.3 0.2-1.5c0 0 0-0.1 0-0.1 0-11.7-6.8-18.3-18.5-18.3-8.1 0-8.1 1.2-14.9 7.8 0 0-2.2 3.7-3.5 6.3l-3 4.3c-28.5 63.6-130.6 146-261.4 146-133.2 0-242.4-90-263.2-149.5l-2.8-6.4-1.9-3.1c-3.8-5.5-5.2-8.3-12.2-8.3-11.7 0-21.2 9.5-21.2 21.1 0 2.7 0.6 4.9 1.3 6.8 0.3 1 0.8 2 0.9 2 4.6 12 13 26 24.8 40.8L211.46 456c-5.4 5-5.8 13.4-0.9 18.9 2.6 2.9 6.2 4.4 9.9 4.4 3.2 0 6.4-1.2 9-3.5l39.8-36.3c22.1 23 51.3 46.5 85.7 66.2L326.66 552c-3.8 6.3-1.8 14.5 4.5 18.4 2.2 1.3 4.6 1.9 6.9 1.9 4.5 0 8.9-2.3 11.4-6.4l29.1-47.9c39.8 19.2 85.2 32.7 134 34.8l0 53.5c0 7.4 6 13.4 13.4 13.4 7.4 0 13.4-6 13.4-13.4l0-53.5c48.7-2.1 94.2-15.6 134-34.8l29.1 47.9c2.5 4.1 6.9 6.4 11.4 6.4 2.4 0 4.8-0.6 6.9-1.9 6.3-3.8 8.3-12.1 4.5-18.4l-28.3-46.5c34.4-19.6 63.6-43.1 85.7-66.1l39.7 36.3c2.6 2.3 5.8 3.5 9 3.5 3.6 0 7.2-1.5 9.9-4.4C846.26 469.4 845.86 460.9 840.46 456z" p-id="4196"></path></svg>