<svg t="1636703466005" class="icon" viewBox="0 0 1024 1024" version="1.1" xmlns="http://www.w3.org/2000/svg" p-id="1949" width="200" height="200"><path d="M853.333333 0H170.666667C76.8 0 0 76.8 0 170.666667v682.666666c0 93.866667 76.8 170.666667 170.666667 170.666667h682.666666c93.866667 0 170.666667-76.8 170.666667-170.666667V170.666667c0-93.866667-76.8-170.666667-170.666667-170.666667z m17.066667 302.933333l-426.666667 473.6c-8.533333 8.533333-25.6 8.533333-34.133333 0l-256-264.533333c-4.266667-4.266667-8.533333-12.8-8.533333-17.066667 0-4.266667 4.266667-12.8 8.533333-17.066666l42.666667-38.4c4.266667-4.266667 12.8-8.533333 17.066666-8.533334 4.266667 0 12.8 4.266667 17.066667 8.533334l179.2 132.266666c8.533333 8.533333 25.6 8.533333 34.133333 0l349.866667-349.866666c8.533333-8.533333 25.6-8.533333 34.133333 0l42.666667 42.666666c8.533333 12.8 8.533333 29.866667 0 38.4z" p-id="1950"></path></svg>