<svg width="61" height="100" viewBox="0 0 61 100" fill="none" xmlns="http://www.w3.org/2000/svg" class="logoMain_FstZ"><path d="m59.2 0 1.396 7.756a19.42 19.42 0 0 1-4.726 16.477l-5.928 6.537-1.416-8.505a19.406 19.406 0 0 1 5.295-16.78L59.203.004 59.2 0Z" fill="url(#a)"></path><path d="M1.363 76.055c.37 1.592.681 3.196.95 4.805 1.853 11.03 11.564 19.395 23.182 19.134a22.955 22.955 0 0 0 2.38-.18c-4.577-6.906-7.257-15.26-7.257-24.26 0-7.247 1.738-14.072 4.802-20.063a44.42 44.42 0 0 0-1.133 9.996c0 12.194 4.914 23.2 12.805 31.026 6.38-3.998 10.689-11.04 10.84-19.037.087-4.6-1.18-8.897-3.428-12.524-.92-1.483-1.707-3.044-2.422-4.636l-3.493-7.796a54.515 54.515 0 0 1 .58-45.823l-3.29 1.976a40.096 40.096 0 0 0-19.449 34.83l.02 1.821c-.014.353-.477.474-.665.177l-1.065-1.688a30.56 30.56 0 0 1-2.968-6.113l-1.31-3.695-1.48 3.81a40.654 40.654 0 0 0-1.684 24.028.84.84 0 0 1-.168.732l-.208.26a.617.617 0 0 1-1.014-.061 34.223 34.223 0 0 1-3.39-7.605l-.852-2.786-.415 1.984a51.598 51.598 0 0 0 .127 21.685l.005.003Z" fill="url(#b)"></path><path d="M2.913 67.267c0-2.996.28-5.926.807-8.762a34.039 34.039 0 0 1-1.217-3.333l-.852-2.787-.415 1.985a51.598 51.598 0 0 0 .127 21.685c.37 1.592.68 3.196.95 4.805C3.45 87.635 7.557 93.4 13.248 96.784c-6.453-8-10.335-18.29-10.335-29.517Z" fill="url(#c)"></path><path d="M7.23 60.755c0-7.759 1.855-15.07 5.132-21.486a30.284 30.284 0 0 1-.605-1.57l-1.31-3.694-1.48 3.81a40.643 40.643 0 0 0-1.726 23.832c-.006-.297-.011-.592-.011-.892Z" fill="url(#d)"></path><path d="M36.89 12.216a54.675 54.675 0 0 1 2.281-5.522l-3.29 1.976A40.095 40.095 0 0 0 16.431 43.5l.02 1.821.793-3.888a46.255 46.255 0 0 1 19.642-29.217h.003Z" fill="url(#e)"></path><defs><linearGradient id="a" x1="59.144" y1="-0.02" x2="49.88" y2="30.748" gradientUnits="userSpaceOnUse"><stop stop-color="#5D39FF"></stop><stop offset="1" stop-color="#3AB1D2"></stop></linearGradient><linearGradient id="b" x1="24.039" y1="6.697" x2="24.039" y2="100" gradientUnits="userSpaceOnUse"><stop stop-color="#5553F5"></stop><stop offset="1" stop-color="#39B6D0"></stop></linearGradient><linearGradient id="c" x1="6.697" y1="52.385" x2="6.697" y2="96.784" gradientUnits="userSpaceOnUse"><stop stop-color="#31D1C5"></stop><stop offset="1" stop-color="#3CAAD4"></stop></linearGradient><linearGradient id="d" x1="9.285" y1="34.005" x2="9.285" y2="61.647" gradientUnits="userSpaceOnUse"><stop stop-color="#31D1C5"></stop><stop offset="1" stop-color="#3CAAD4"></stop></linearGradient><linearGradient id="e" x1="27.8" y1="6.694" x2="27.8" y2="45.321" gradientUnits="userSpaceOnUse"><stop stop-color="#31D1C5"></stop><stop offset="1" stop-color="#3CAAD4"></stop></linearGradient></defs></svg>